<svg id="Capa_1" enable-background="new 0 0 512 512" height="512" viewBox="0 0 512 512" width="512" xmlns="http://www.w3.org/2000/svg"><g><path d="m186.549 225.023-90.814-90.814c-10.624-10.625-10.624-27.85 0-38.475 10.625-10.624 27.85-10.624 38.475 0l90.814 90.814c10.624 10.625 10.624 27.85 0 38.475-10.626 10.625-27.85 10.624-38.475 0z" fill="#a0bce7"/><path d="m114.973 142.178h-54.47c-15.025 0-27.206-12.181-27.206-27.206s12.181-27.206 27.206-27.206h27.263v-27.263c0-15.025 12.181-27.206 27.206-27.206s27.206 12.181 27.206 27.206v54.469c0 15.025-12.181 27.206-27.205 27.206z" fill="#7ca2dd"/><path d="m114.973 424.234c-6.963 0-13.925-2.656-19.238-7.968-10.624-10.625-10.624-27.85 0-38.475l90.814-90.814c10.625-10.624 27.85-10.624 38.475 0 10.624 10.625 10.624 27.85 0 38.475l-90.814 90.814c-5.313 5.312-12.274 7.968-19.237 7.968z" fill="#a0bce7"/><path d="m114.973 478.703c-15.025 0-27.206-12.181-27.206-27.206v-27.263h-27.264c-15.025 0-27.206-12.18-27.206-27.206 0-15.025 12.181-27.206 27.206-27.206h54.469c15.025 0 27.206 12.181 27.206 27.206v54.469c0 15.025-12.181 27.206-27.205 27.206z" fill="#7ca2dd"/><path d="m397.029 424.234c-6.963 0-13.925-2.656-19.238-7.968l-90.815-90.814c-10.624-10.625-10.624-27.85 0-38.475 10.625-10.624 27.85-10.624 38.475 0l90.815 90.814c10.624 10.625 10.624 27.85 0 38.475-5.312 5.312-12.274 7.968-19.237 7.968z" fill="#a0bce7"/><path d="m397.029 478.703c-15.025 0-27.206-12.181-27.206-27.206v-54.469c0-15.025 12.181-27.206 27.206-27.206h54.468c15.026 0 27.206 12.181 27.206 27.206s-12.18 27.206-27.206 27.206h-27.262v27.263c0 15.025-12.181 27.206-27.206 27.206z" fill="#7ca2dd"/><path d="m286.977 225.023c-10.624-10.625-10.624-27.85 0-38.475l90.815-90.814c10.624-10.624 27.851-10.624 38.475 0 10.624 10.625 10.624 27.851 0 38.475l-90.815 90.814c-10.624 10.623-27.85 10.625-38.475 0z" fill="#a0bce7"/><g fill="#7ca2dd"><path d="m451.497 142.178h-54.468c-15.025 0-27.206-12.181-27.206-27.206v-54.469c0-15.025 12.181-27.206 27.206-27.206s27.206 12.181 27.206 27.206v27.263h27.262c15.026 0 27.206 12.18 27.206 27.206 0 15.025-12.18 27.206-27.206 27.206z"/><path d="m325.452 286.977c-10.625-10.624-27.85-10.624-38.475 0-10.624 10.625-10.624 27.85 0 38.475l47.618 47.618 13.249-24.103c.265-.48.642-.858 1.122-1.121l24.104-13.25z"/><path d="m225.024 286.977c-10.625-10.624-27.85-10.624-38.475 0l-47.618 47.618 24.106 13.251c.479.263.855.64 1.119 1.119l13.251 24.105 47.618-47.618c10.623-10.625 10.623-27.85-.001-38.475z"/><path d="m225.024 186.548-47.618-47.618-13.248 24.101c-.264.482-.643.86-1.123 1.124l-24.104 13.25 47.618 47.618c10.626 10.625 27.85 10.624 38.475 0 10.624-10.625 10.624-27.85 0-38.475z"/><path d="m325.452 225.023 47.618-47.618-24.104-13.25c-.48-.264-.857-.642-1.121-1.121l-13.25-24.104-47.618 47.618c-10.624 10.625-10.624 27.85 0 38.475 10.623 10.623 27.849 10.626 38.475 0z"/></g><path d="m445.191 228.794h-53.486l-60.108-33.042c-6.479-3.562-11.787-8.87-15.349-15.349l-33.042-60.109v-53.485c0-15.026-12.18-27.206-27.206-27.206s-27.206 12.18-27.206 27.206v53.486l-33.041 60.107c-3.563 6.481-8.871 11.788-15.349 15.349l-60.109 33.042h-53.485c-15.026 0-27.206 12.18-27.206 27.206 0 15.025 12.18 27.206 27.206 27.206h53.486l60.109 33.043c6.478 3.561 11.786 8.868 15.348 15.348l33.042 60.109v53.486c0 15.025 12.18 27.206 27.206 27.206s27.206-12.181 27.206-27.206v-53.486l33.041-60.107c3.562-6.48 8.871-11.787 15.349-15.349l60.109-33.043h53.486c15.026 0 27.206-12.18 27.206-27.206-.001-15.025-12.181-27.206-27.207-27.206zm-139.807 39.772c-15.541 8.544-28.273 21.275-36.819 36.819l-12.565 22.859-12.567-22.86c-8.545-15.543-21.277-28.275-36.818-36.818l-22.859-12.566 22.859-12.566c15.541-8.543 28.273-21.275 36.819-36.819l12.566-22.859 12.566 22.859c0 .001 0 .001.001.001 8.544 15.542 21.276 28.274 36.818 36.818l22.86 12.566z" fill="#cde9fa"/><path d="m236.763 84.959-38.516-38.516c-10.624-10.625-10.624-27.851 0-38.475 10.625-10.624 27.85-10.624 38.475 0l19.278 19.278 19.278-19.278c10.625-10.624 27.85-10.624 38.475 0 10.624 10.625 10.624 27.851 0 38.475l-38.516 38.516c-10.625 10.624-27.849 10.624-38.474 0z" fill="#a2ddfd"/><path d="m7.968 313.753c-10.624-10.625-10.624-27.85 0-38.475l19.278-19.278-19.278-19.277c-10.624-10.625-10.624-27.85 0-38.475 10.625-10.624 27.85-10.624 38.475 0l38.516 38.515c10.618 10.618 10.623 27.852 0 38.475l-38.516 38.515c-10.623 10.623-27.849 10.625-38.475 0z" fill="#a2ddfd"/><path d="m275.278 504.032-19.278-19.278-19.278 19.278c-10.625 10.624-27.85 10.624-38.475 0-10.624-10.625-10.624-27.85 0-38.475l38.516-38.516c10.625-10.624 27.85-10.624 38.475 0l38.516 38.516c10.624 10.625 10.624 27.851 0 38.475-10.626 10.625-27.85 10.624-38.476 0z" fill="#a2ddfd"/><path d="m465.557 313.753-38.516-38.515c-10.618-10.618-10.623-27.852 0-38.475l38.516-38.515c10.625-10.623 27.852-10.624 38.475 0 10.624 10.625 10.624 27.85 0 38.475l-19.278 19.277 19.278 19.277c10.624 10.625 10.624 27.85 0 38.475-10.626 10.625-27.85 10.625-38.475.001z" fill="#a2ddfd"/></g></svg>